<?xml version="1.0" encoding="utf-8"?>
<!-- Generator: Adobe Illustrator 17.1.0, SVG Export Plug-In . SVG Version: 6.00 Build 0)  -->
<!DOCTYPE svg PUBLIC "-//W3C//DTD SVG 1.1//EN" "http://www.w3.org/Graphics/SVG/1.1/DTD/svg11.dtd">
<svg version="1.1" id="Layer_1" xmlns="http://www.w3.org/2000/svg" xmlns:xlink="http://www.w3.org/1999/xlink" x="0px" y="0px" viewBox="0 0 200 200" enable-background="new 0 0 200 200" xml:space="preserve">
<path d="M160.831,22.802H39.169L7.18,70.786L100,179.076l92.82-108.291L160.831,22.802z M136.101,74.021L100,164.274L63.899,74.021 H136.101z M67.422,67.021L100,31.482l32.578,35.539H67.422z M107.957,29.802h45.831l-13.923,34.809L107.957,29.802z M60.135,64.611 L46.212,29.802h45.831L60.135,64.611z M53.559,67.021H18.102L40.263,33.78L53.559,67.021z M56.359,74.021l32.539,81.347 L19.172,74.021H56.359z M143.641,74.021h37.187l-69.726,81.347L143.641,74.021z M146.441,67.021l13.296-33.241l22.161,33.241 H146.441z"/>
</svg>
