<?xml version="1.0" encoding="utf-8"?>
<!-- Generator: Adobe Illustrator 17.1.0, SVG Export Plug-In . SVG Version: 6.00 Build 0)  -->
<!DOCTYPE svg PUBLIC "-//W3C//DTD SVG 1.1//EN" "http://www.w3.org/Graphics/SVG/1.1/DTD/svg11.dtd">
<svg version="1.1" id="Layer_1" xmlns="http://www.w3.org/2000/svg" xmlns:xlink="http://www.w3.org/1999/xlink" x="0px" y="0px"
	 viewBox="0 0 200 200" enable-background="new 0 0 200 200" xml:space="preserve">
<path d="M123.38,156.819c1.421-1.545,2.294-3.578,2.294-5.812c0-4.811-4.017-8.725-8.953-8.725H83.279
	c-4.937,0-8.954,3.914-8.954,8.725c0,2.233,0.873,4.267,2.294,5.812c-1.421,1.545-2.294,3.578-2.294,5.811
	c0,2.205,0.85,4.215,2.239,5.753c-1.389,1.538-2.239,3.548-2.239,5.753c0,4.811,4.017,8.725,8.954,8.725h33.442
	c4.937,0,8.953-3.914,8.953-8.725c0-2.205-0.85-4.215-2.239-5.753c1.389-1.538,2.239-3.548,2.239-5.753
	C125.674,160.397,124.802,158.363,123.38,156.819z M83.279,159.905h33.442c1.628,0,2.953,1.223,2.953,2.725
	c0,1.503-1.325,2.726-2.953,2.726H83.279c-1.628,0-2.954-1.223-2.954-2.726C80.325,161.128,81.651,159.905,83.279,159.905z
	 M83.279,148.282h33.442c1.628,0,2.953,1.223,2.953,2.725c0,1.503-1.325,2.726-2.953,2.726H83.279c-1.628,0-2.954-1.223-2.954-2.726
	C80.325,149.505,81.651,148.282,83.279,148.282z M116.721,176.86H83.279c-1.628,0-2.954-1.223-2.954-2.725
	c0-1.503,1.325-2.726,2.954-2.726h33.442c1.628,0,2.953,1.223,2.953,2.726C119.674,175.637,118.349,176.86,116.721,176.86z"/>
<path d="M122.62,138.698H77.38l-3.5-3.5V123.42c0-4.145-6.023-11.736-11.848-19.077c-9.748-12.287-21.88-27.578-21.999-43.898
	c-0.09-12.418,5.013-24.448,14.37-33.873c11.432-11.516,28.052-18.12,45.598-18.12c33.065,0,59.967,23.312,59.967,51.968
	c0,16.391-12.224,31.752-22.046,44.095c-5.802,7.291-11.802,14.831-11.802,18.906v11.778L122.62,138.698z M80.88,131.698h38.24
	v-8.278c0-6.521,5.88-13.91,13.324-23.265c9.144-11.491,20.523-25.791,20.523-39.736c0-24.795-23.761-44.968-52.967-44.968
	c-15.694,0-30.503,5.851-40.63,16.052c-8.033,8.091-12.414,18.352-12.337,28.891c0.101,13.909,11.402,28.153,20.482,39.599
	c7.466,9.41,13.364,16.844,13.364,23.428V131.698z"/>
<g>
	<rect x="97.5" y="75.953" width="5" height="45.948"/>
</g>
<rect x="86.071" y="63.867" width="27.857" height="5"/>
<rect x="86.071" y="54.197" width="27.857" height="5"/>
<path d="M107.005,191.049H92.996c-1.657,0-3-1.343-3-3s1.343-3,3-3h14.009c1.657,0,3,1.343,3,3S108.662,191.049,107.005,191.049z"/>
</svg>
