<?xml version="1.0" encoding="utf-8"?>
<!-- Generator: Adobe Illustrator 17.1.0, SVG Export Plug-In . SVG Version: 6.00 Build 0)  -->
<!DOCTYPE svg PUBLIC "-//W3C//DTD SVG 1.1//EN" "http://www.w3.org/Graphics/SVG/1.1/DTD/svg11.dtd">
<svg version="1.1" id="Layer_1" xmlns="http://www.w3.org/2000/svg" xmlns:xlink="http://www.w3.org/1999/xlink" x="0px" y="0px"
	 viewBox="0 0 200 200" enable-background="new 0 0 200 200" xml:space="preserve">
<g>
	<path d="M79.036,135.812c-15.166,0-29.424-5.906-40.147-16.63s-16.63-24.981-16.63-40.146c0-15.166,5.906-29.424,16.63-40.147
		s24.981-16.63,40.147-16.63c15.165,0,29.423,5.906,40.146,16.63s16.63,24.981,16.63,40.147c0,15.165-5.906,29.423-16.63,40.146
		S94.201,135.812,79.036,135.812z M79.036,29.259c-13.297,0-25.797,5.178-35.198,14.579S29.259,65.739,29.259,79.036
		c0,13.296,5.178,25.796,14.579,35.197s21.901,14.579,35.198,14.579c13.296,0,25.796-5.178,35.197-14.579
		s14.579-21.901,14.579-35.197c0-13.297-5.178-25.797-14.579-35.198S92.332,29.259,79.036,29.259z"/>
	<path d="M79.035,125.446c-12.396,0-24.051-4.827-32.816-13.594c-18.096-18.095-18.096-47.539,0-65.634
		c8.766-8.767,20.42-13.594,32.816-13.594c12.397,0,24.052,4.827,32.817,13.594c8.767,8.766,13.594,20.42,13.594,32.817
		c0,12.396-4.827,24.051-13.594,32.816C103.087,120.619,91.433,125.446,79.035,125.446z M79.035,38.625
		c-10.793,0-20.941,4.203-28.574,11.836c-15.756,15.756-15.756,41.394,0,57.149c7.633,7.633,17.781,11.836,28.574,11.836
		c10.794,0,20.942-4.203,28.575-11.836s11.836-17.781,11.836-28.574c0-10.794-4.203-20.942-11.836-28.575
		S89.829,38.625,79.035,38.625z"/>
	<path d="M118.919,129.675c-0.768,0-1.535-0.293-2.121-0.879c-1.172-1.171-1.172-3.071,0-4.242l7.756-7.756
		c1.172-1.172,3.07-1.172,4.242,0c1.172,1.171,1.172,3.071,0,4.242l-7.756,7.756C120.454,129.382,119.687,129.675,118.919,129.675z"
		/>
	<path d="M164.695,178.483l-44.705-44.705l13.788-13.788l44.705,44.705L164.695,178.483z M128.475,133.778l36.221,36.221
		l5.304-5.304l-36.221-36.221L128.475,133.778z"/>
</g>
</svg>
