<?xml version="1.0" encoding="utf-8"?>
<!-- Generator: Adobe Illustrator 17.1.0, SVG Export Plug-In . SVG Version: 6.00 Build 0)  -->
<!DOCTYPE svg PUBLIC "-//W3C//DTD SVG 1.1//EN" "http://www.w3.org/Graphics/SVG/1.1/DTD/svg11.dtd">
<svg version="1.1" id="Layer_1" xmlns="http://www.w3.org/2000/svg" xmlns:xlink="http://www.w3.org/1999/xlink" x="0px" y="0px"
	 viewBox="0 0 200 200" enable-background="new 0 0 200 200" xml:space="preserve">
<g>
	<g>
		<rect x="19.374" y="141.572" transform="matrix(0.4961 0.8683 -0.8683 0.4961 136.6213 52.7403)" width="7" height="5"/>
		<rect x="174.627" y="140.572" transform="matrix(0.8682 0.4961 -0.4961 0.8682 94.8175 -68.8968)" width="5" height="7"/>
	</g>
	<rect x="96.5" y="9.375" width="7" height="5"/>
</g>
<path d="M100,5.344L17.203,52.656v94.688L100,194.656l82.797-47.312V52.656L100,5.344z M172.242,54.688L101.695,95h-3.391
	L27.758,54.688L100,13.406L172.242,54.688z M24.203,60.719L94.87,101.1l1.63,2.853v80.641l-72.297-41.312V60.719z M103.5,184.594
	v-80.642l1.629-2.852l70.667-40.381v82.562L103.5,184.594z"/>
<rect x="79.101" y="105.537" transform="matrix(0.8682 -0.4961 0.4961 0.8682 -43.0066 56.1348)" width="10.166" height="7"/>
<rect x="64.796" y="113.034" transform="matrix(-0.4961 -0.8683 0.8683 -0.4961 -0.3824 236.0115)" width="7" height="10.166"/>
<rect x="33.019" y="131.192" transform="matrix(-0.4961 -0.8683 0.8683 -0.4961 -63.6887 235.5869)" width="7" height="10.166"/>
<rect x="48.907" y="122.113" transform="matrix(-0.4961 -0.8683 0.8683 -0.4961 -32.0355 235.7992)" width="7" height="10.166"/>
<rect x="142.509" y="123.696" transform="matrix(-0.8682 -0.4961 0.4961 -0.8682 212.6337 310.8582)" width="10.167" height="7"/>
<rect x="158.398" y="132.775" transform="matrix(-0.8682 -0.4962 0.4962 -0.8682 237.8028 335.7063)" width="10.166" height="7"/>
<rect x="110.733" y="105.537" transform="matrix(-0.8682 -0.4961 0.4961 -0.8682 162.2763 261.169)" width="10.167" height="7"/>
<rect x="126.621" y="114.617" transform="matrix(-0.8682 -0.4962 0.4962 -0.8682 187.447 286.0162)" width="10.166" height="7"/>
<rect x="96.5" y="58.719" width="7" height="10.078"/>
<rect x="96.5" y="22.438" width="7" height="10.078"/>
<rect x="96.5" y="40.578" width="7" height="10.078"/>
<rect x="96.5" y="76.859" width="7" height="10.078"/>
</svg>
