<?xml version="1.0" encoding="utf-8"?>
<!-- Generator: Adobe Illustrator 17.1.0, SVG Export Plug-In . SVG Version: 6.00 Build 0)  -->
<!DOCTYPE svg PUBLIC "-//W3C//DTD SVG 1.1//EN" "http://www.w3.org/Graphics/SVG/1.1/DTD/svg11.dtd">
<svg version="1.1" id="Layer_1" xmlns="http://www.w3.org/2000/svg" xmlns:xlink="http://www.w3.org/1999/xlink" x="0px" y="0px"
	 viewBox="0 0 200 200" enable-background="new 0 0 200 200" xml:space="preserve">
<path d="M168.964,26.533H97.241c-14.099,0-25.568,11.47-25.568,25.568v15.057H31.036c-14.099,0-25.568,11.47-25.568,25.568v33.35 c0,14.099,11.47,25.568,25.568,25.568h1.342l29.646,26.059v-26.059h40.734c14.099,0,25.568-11.47,25.568-25.568v-15.057h9.649 v26.059l29.646-26.059h1.342c14.099,0,25.568-11.47,25.568-25.568v-33.35C194.533,38.003,183.063,26.533,168.964,26.533z M121.327,126.076c0,10.238-8.33,18.568-18.568,18.568H55.024v17.586l-20.008-17.586h-3.98c-10.239,0-18.568-8.33-18.568-18.568 v-33.35c0-10.238,8.33-18.568,18.568-18.568h40.637v11.293c0,14.099,11.47,25.568,25.568,25.568h24.085V126.076z M121.327,104.019 H97.241c-10.239,0-18.568-8.33-18.568-18.568V74.158h24.085c10.238,0,18.568,8.33,18.568,18.568V104.019z M187.533,85.451 c0,10.238-8.33,18.568-18.568,18.568h-3.98l-20.008,17.586v-17.586h-16.649V92.726c0-14.099-11.47-25.568-25.568-25.568H78.673 V52.101c0-10.238,8.33-18.568,18.568-18.568h71.723c10.238,0,18.568,8.33,18.568,18.568V85.451z"/>
</svg>
