<?xml version="1.0" encoding="utf-8"?>
<!-- Generator: Adobe Illustrator 17.1.0, SVG Export Plug-In . SVG Version: 6.00 Build 0)  -->
<!DOCTYPE svg PUBLIC "-//W3C//DTD SVG 1.1//EN" "http://www.w3.org/Graphics/SVG/1.1/DTD/svg11.dtd">
<svg version="1.1" id="Layer_1" xmlns="http://www.w3.org/2000/svg" xmlns:xlink="http://www.w3.org/1999/xlink" x="0px" y="0px"
	 viewBox="0 0 200 200" enable-background="new 0 0 200 200" xml:space="preserve">
<g>
	<path d="M170.297,166.578H29.703c-3.442,0-6.607-1.877-8.258-4.899c-1.65-3.024-1.519-6.701,0.343-9.598L92.039,37.803 c1.776-2.766,4.735-4.381,7.952-4.381c3.218,0,6.177,1.615,7.916,4.321L177.94,151.68c1.155,1.607,1.766,3.502,1.766,5.489 C179.706,162.357,175.485,166.578,170.297,166.578z M99.991,40.422c-0.824,0-1.581,0.413-2.026,1.106L27.714,155.806 c-0.514,0.802-0.548,1.743-0.125,2.518c0.422,0.772,1.232,1.254,2.114,1.254h140.594c1.328,0,2.409-1.081,2.409-2.409 c0-0.663-0.26-1.151-0.479-1.443c-0.062-0.084-0.122-0.171-0.177-0.261L101.981,41.469 C101.573,40.835,100.815,40.422,99.991,40.422z"/>
	<path d="M100,54.04l59.876,97.491H40.124L100,54.04 M100,44.487L31.185,156.532h137.63L100,44.487L100,44.487z"/>
	<g>
		<path d="M106.457,128.413v12.668H93.543v-12.668H106.457z M102.838,123.479h-5.842l-3.125-25.336V82.352h12.174v15.792 L102.838,123.479z"/>
	</g>
</g>
</svg>
