<svg version="1.1" baseProfile="tiny" xmlns="http://www.w3.org/2000/svg" xmlns:xlink="http://www.w3.org/1999/xlink" xmlns:a="http://ns.adobe.com/AdobeSVGViewerExtensions/3.0/" x="0px" y="0px" width="152.004px" height="152.005px" viewBox="0 0 152.004 152.005" xml:space="preserve">
<defs>
</defs>
<path class="social-colour" d="M76.152,91.965c9.272,0,16.72-7.144,16.72-15.96c0-9.12-7.296-16.264-16.72-16.264 c-9.272,0-16.72,7.144-16.72,16.264C59.432,84.82,66.88,91.965,76.152,91.965z"/><path class="social-colour" fill="#EA743E" d="M152,75.853c-0.456-42.104-34.656-76.304-75.848-75.848C34.2,0.46,0,33.9,0,75.853 s34.2,76.152,76.152,76.152S152.456,117.805,152,75.853z M117.344,106.86c0,5.776-4.712,10.64-10.64,10.64h-61.56 c-5.776,0-10.64-4.712-10.64-10.64V45.3c0-5.776,4.712-10.64,10.64-10.64h61.56c5.776,0,10.64,4.712,10.64,10.64V106.86z"/><path class="social-colour" fill="#EA743E" d="M104.424,43.629h-9.576c-1.976,0-3.648,1.672-3.648,3.648v9.12c0,1.976,1.672,3.648,3.648,3.648h9.576 c1.976,0,3.648-1.672,3.648-3.648v-9.12C108.072,45.452,106.4,43.629,104.424,43.629z"/><path class="social-colour" fill="#EA743E" d="M101.84,76.765c0,13.832-11.4,24.928-25.688,24.928S50.464,90.597,50.464,76.765 c0-2.584,0.152-5.016,1.064-7.144h-7.752v34.96c0,1.672,1.52,3.192,3.496,3.192h57.76c1.672,0,3.192-1.52,3.192-3.192V69.62h-7.296 C101.688,71.749,101.84,74.18,101.84,76.765z"/>
</svg>
