<svg version="1.1" baseProfile="tiny" xmlns="http://www.w3.org/2000/svg" xmlns:xlink="http://www.w3.org/1999/xlink" xmlns:a="http://ns.adobe.com/AdobeSVGViewerExtensions/3.0/" x="0px" y="0px" width="152px" height="152px" viewBox="0 0 152 152" xml:space="preserve">
<defs>
</defs>
<path class="social-colour" d="M76,0C34.048,0,0,33.896,0,75.848C0,117.952,34.048,152,76,152s76-33.896,76-76.152 C152,33.896,117.952,0,76,0z M97.584,91.048C92.112,95.76,79.8,98.8,73.112,93.632c-0.912-0.608-1.368-3.04-2.584-2.128 c-1.976,8.208-4.256,17.784-8.056,24.016h-5.168c-0.912-3.192-0.456-9.728,0.152-12.92c1.368-8.056,6.232-19,6.232-27.056 c0-3.496-1.976-7.144-1.368-11.096c1.064-7.296,11.248-13.832,14.744-5.624C81.168,68.4,68.4,79.8,75.544,86.488 c1.368,1.368,5.016,2.128,8.056,1.672c14.44-3.04,16.72-33.744,4.56-40.888c-17.328-10.336-36.784,5.624-35.112,22.04 c0.608,6.232,7.296,9.728,1.672,15.352c-8.056-3.192-11.096-9.12-11.096-18.392c0.152-19.456,18.392-32.072,38.608-29.64 c12.92,1.52,24.016,11.856,25.384,23.712C108.984,71.136,105.488,84.512,97.584,91.048z"/>
</svg>
